<svg xmlns="http://www.w3.org/2000/svg" version="1.1" xmlns:xlink="http://www.w3.org/1999/xlink" width="654.2901814365825" height="200" viewBox="-8.168134689331055 3.440000057220459 169.0481414794922 44.730499267578125"><path d="M-1.64 23.72L-2.48 24.28Q-3.76 25.80-4.28 26.92Q-4.80 28.04-4.54 28.86Q-4.28 29.68-2.90 30.04Q-1.52 30.40 1 30.24L1 30.24Q2.28 30.16 3.56 30L3.56 30Q-0.48 27.92-1.64 23.72L-1.64 23.72ZM19.68 26.28L19.68 26.28Q15.72 26.72 10.64 28.72L10.64 28.72Q14.28 27.88 19.68 26.28ZM23.68 25.08L22.56 26.20Q12.76 29.16 8.36 30.12L8.36 30.12Q12.80 31.04 17.84 29.94Q22.88 28.84 26.08 26.32L26.08 26.32Q26.64 24.72 26.50 23.54Q26.36 22.36 25.44 21.48Q24.52 20.60 23.30 20.04Q22.08 19.48 20.48 19.12L20.48 19.12Q16.88 18.32 13.20 18.60Q9.52 18.88 6.18 19.98Q2.84 21.08-0.40 22.96L-0.40 22.96Q1.12 27.76 6.40 29.60L6.40 29.60Q7.12 29.48 7.84 29.32L7.84 29.32Q12.20 27.24 16.38 26.06Q20.56 24.88 23.68 25.08L23.68 25.08ZM-2.72 36.12L-2.72 36.12Q-3.40 36.68-4.32 37.56L-4.32 37.56L-2.88 36.12Q-2.24 35.48-1.60 35L-1.60 35Q1.12 32.88 5.04 30.76L5.04 30.76Q2.40 31.20-0.12 31.36L-0.12 31.36Q-2.36 31.52-3.64 31.28L-3.64 31.28Q-4.96 31-5.44 30.42Q-5.92 29.84-5.72 28.92Q-5.52 28-4.80 26.94Q-4.08 25.88-2.84 24.52L-2.84 24.52L-1.72 23.40L-1.72 23.32Q-2.04 21.92-2.06 20.32Q-2.08 18.72-1.80 17.04Q-1.52 15.36-1.14 13.80Q-0.76 12.24-0.12 10.48L-0.12 10.48L1 7.44Q1.48 6.16 2.16 4.56L2.16 4.56L3.28 3.44Q4.04 4.76 4.80 7.62Q5.56 10.48 5.80 11.12L5.80 11.12L4.68 12.24Q4.36 11.40 3.72 8.96Q3.08 6.52 2.52 5.28L2.52 5.28Q-1.96 16.36-0.60 22.20L-0.60 22.20Q-0.56 22.40-0.48 22.60L-0.48 22.60Q4.64 19.32 10.32 18.04L10.32 18.04Q15.92 16.76 21.60 18L21.60 18Q22.96 18.28 24 18.72L24 18.72Q25.04 19.12 25.90 19.76Q26.76 20.40 27.22 21.20Q27.68 22 27.68 23.08Q27.68 24.16 27.12 25.44L27.12 25.44L26 26.56Q22.76 29.72 16.84 31.04Q10.92 32.36 5.80 30.88L5.80 30.88Q0.72 33.44-2.72 36.12ZM-6.64 39.92L-5.52 38.80Q-5.68 39.16-6.06 39.78Q-6.44 40.40-6.68 40.94Q-6.92 41.48-7 42L-7 42Q-7.36 44.68-3.52 44.80L-3.52 44.80Q-0.76 44.92 4.68 43.44L4.68 43.44Q10.56 41.92 21.20 38.44Q31.84 34.96 35.48 33.88L35.48 33.88L34.36 35Q30.68 36.08 20.08 39.60L20.08 39.60Q9.56 43.04 3.56 44.56L3.56 44.56Q-0.24 45.52-1.56 45.72L-1.56 45.72Q-8.40 46.76-8.16 43.32L-8.16 43.32Q-8.16 43.24-8.12 43.12L-8.12 43.12Q-8.04 42.60-7.80 42.08Q-7.56 41.56-7.18 40.92Q-6.80 40.28-6.64 39.92L-6.64 39.92ZM39.56 16.12L40.44 15.24L40.68 15.88L39.80 16.76L39.68 16.36Q38.60 18.28 37.82 21.94Q37.04 25.60 36.66 29.86Q36.28 34.12 36.10 37.14Q35.92 40.16 35.88 42.80L35.88 42.80L35 43.68Q35.08 40.72 35.28 37.44Q35.48 34.16 35.94 29.52Q36.40 24.88 37.34 21.20Q38.28 17.52 39.56 16.12L39.56 16.12ZM44.72 16.12L45.60 15.24L45.84 15.88L44.96 16.76L44.84 16.36Q43.76 18.28 42.98 21.94Q42.20 25.60 41.82 29.86Q41.44 34.12 41.26 37.14Q41.08 40.16 41.04 42.80L41.04 42.80L40.16 43.68Q40.24 40.72 40.44 37.44Q40.64 34.16 41.10 29.52Q41.56 24.88 42.50 21.20Q43.44 17.52 44.72 16.12L44.72 16.12ZM45.92 40.40L44.80 41.52Q44.80 40.76 44.76 40.30Q44.72 39.84 44.84 39.12Q44.96 38.40 45.02 38Q45.08 37.60 45.28 36.92L45.28 36.92L45.60 35.84Q45.72 35.48 46 34.80L46 34.80L46.40 33.76L46.84 32.64Q47.12 31.96 47.32 31.52L47.32 31.52L48.44 30.40Q48.44 30.52 48.18 33.70Q47.92 36.88 48.12 39.16Q48.32 41.44 49.24 41.72L49.24 41.72Q49.56 41.80 49.86 41.60Q50.16 41.40 50.52 41Q50.88 40.60 51.08 40.48L51.08 40.48L49.96 41.60Q49.76 41.76 49.40 42.14Q49.04 42.52 48.74 42.72Q48.44 42.92 48.12 42.84L48.12 42.84Q47.52 42.68 47.22 41.74Q46.92 40.80 46.94 39.10Q46.96 37.40 47 36.36Q47.04 35.32 47.20 33.48L47.20 33.48Q45.72 37.32 45.92 40.40L45.92 40.40ZM47.24 26.88Q47.48 27.12 47.48 27.44Q47.48 27.76 47.24 28Q47 28.24 46.68 28.24Q46.36 28.24 46.12 28Q45.88 27.76 45.88 27.44Q45.88 27.12 46.12 26.88Q46.36 26.64 46.68 26.64Q47 26.64 47.24 26.88ZM50.60 39.92L50.60 39.92Q50.56 40.08 50.34 40.46Q50.12 40.84 50.08 41Q50.04 41.16 50.08 41.52L50.08 41.52Q50.16 41.68 50.78 41.40Q51.40 41.12 52.46 40.44Q53.52 39.76 54.56 38.88L54.56 38.88Q54.56 37.92 54.32 37.04L54.32 37.04Q52.52 38.16 50.60 39.92ZM56.44 32.04L55.32 33.16Q55.40 32.84 55.80 32.12L55.80 32.12Q56.20 31.32 56 31.32L56 31.32Q55.92 31.32 55.72 31.44L55.72 31.44Q55.28 32.08 55.08 32.58Q54.88 33.08 54.88 33.54Q54.88 34 54.92 34.26Q54.96 34.52 55.16 35.06Q55.36 35.60 55.44 35.88L55.44 35.88Q57.20 34.80 59.12 34.08L59.12 34.08L58 35.20Q56.72 35.68 55.52 36.32L55.52 36.32Q55.68 37.04 55.68 37.84L55.68 37.84L54.56 38.96Q53.40 40.12 52.06 41.08Q50.72 42.04 49.88 42.44Q49.04 42.84 48.96 42.64L48.96 42.64Q48.84 42.40 48.94 42.12Q49.04 41.84 49.24 41.50Q49.44 41.16 49.52 40.96L49.52 40.96L50.64 39.84Q52.56 37.96 54.20 36.72L54.20 36.72Q54.16 36.56 54 36.12Q53.84 35.68 53.82 35.52Q53.80 35.36 53.74 35Q53.68 34.64 53.76 34.38Q53.84 34.12 53.98 33.72Q54.12 33.32 54.40 32.86Q54.68 32.40 55.12 31.80L55.12 31.80L56.24 30.68Q57.20 30.04 57.24 30.28L57.24 30.28Q57.24 30.32 56.64 31.52L56.64 31.52Q56.52 31.80 56.44 32.04L56.44 32.04ZM60.20 34.96L60.20 34.96Q57.80 37.80 58.64 38.84L58.64 38.84Q59.20 37.96 62 34.40L62 34.40Q62.88 33.32 62.64 33.32L62.64 33.32Q62.32 33.36 60.20 34.96ZM58.44 40.52L58.44 40.52L57.44 41.52Q57.48 41 57.84 40.28L57.84 40.28Q56.16 39.24 59.80 35.28L59.80 35.28L60.92 34.16Q63.84 31.92 63.84 32.24L63.84 32.24Q63.84 32.40 61.76 34.96L61.76 34.96Q59.68 37.64 58.96 39.12L58.96 39.12Q59.64 39.52 61.04 39.56Q62.44 39.60 64.66 39.44Q66.88 39.28 67.96 39.28L67.96 39.28L66.84 40.40Q65.76 40.40 63.74 40.54Q61.72 40.68 60.76 40.70Q59.80 40.72 58.44 40.52ZM84.48 38.40L84.40 38.56L85.32 38.36L85.24 37.68L84.96 37.76Q84.68 38.08 84.48 38.40L84.48 38.40ZM88.40 38.28L88.40 38.28Q86.40 38.96 84.36 39.44L84.36 39.44L83.92 39.56Q82.44 43.20 82.52 45.56L82.52 45.56Q82.56 47.88 84.64 46.56L84.64 46.56Q86.64 42.88 88.40 38.28ZM78.68 38.76L78.48 38.80Q80.28 39.44 84.04 38.64L84.04 38.64L84.88 37.76Q81.68 38.48 78.68 38.76L78.68 38.76ZM106.12 27.44L105 28.56Q96.84 35.20 89.20 38L89.20 38Q87.48 42.40 85.48 45.96L85.48 45.96L84.36 47.08Q81.28 49.56 81.36 46.40L81.36 46.40Q81.44 43.92 82.88 40.48L82.88 40.48Q83.08 40 83.24 39.72L83.24 39.72Q77.20 41.04 75.96 38.84L75.96 38.84Q73.28 38.72 71.64 37.74Q70 36.76 69.52 35.20Q69.04 33.64 69.38 31.64Q69.72 29.64 70.80 27.48Q71.88 25.32 73.56 23.20L73.56 23.20Q74.20 22.36 75 21.52L75 21.52L76.80 19.60L78.40 18L79.52 16.88L83.60 14Q85.04 13.04 87.28 11.72Q89.52 10.40 91.62 9.62Q93.72 8.84 95.96 8.44L95.96 8.44L96.92 7.48L97 8.28Q97.84 8.16 98.68 8.08L98.68 8.08Q101.88 7.84 104.70 8.70Q107.52 9.56 109.40 11.66Q111.28 13.76 111.32 16.72L111.32 16.72L113.12 16.52L112 17.64L111.32 17.72Q111.20 18.76 110.92 19.84L110.92 19.84Q110.60 21 110 22.14Q109.40 23.28 109.04 23.78Q108.68 24.28 107.52 25.70Q106.36 27.12 106.12 27.44L106.12 27.44ZM110.12 16.88L110.12 16.88Q109.76 14.24 107.86 12.38Q105.96 10.52 103.26 9.74Q100.56 8.96 97.56 9.20L97.56 9.20Q97.28 9.24 97.04 9.24L97.04 9.24Q97.04 10.96 96.64 13.10Q96.24 15.24 95.92 16.38Q95.60 17.52 94.80 20.12L94.80 20.12Q95.84 19.68 96.88 19.32L96.88 19.32L98.64 18.72Q99.40 18.48 100.52 18.24L100.52 18.24L102.16 17.88Q102.72 17.76 104.04 17.58Q105.36 17.40 105.80 17.36Q106.24 17.32 107.92 17.12Q109.60 16.92 110.12 16.88ZM110.20 17.88L110.20 17.88L107.12 18.24Q105.12 18.44 104.28 18.54Q103.44 18.64 101.96 18.86Q100.48 19.08 99.50 19.32Q98.52 19.56 97.22 19.96Q95.92 20.36 94.56 20.92L94.56 20.92L94.28 21.88Q91.16 32.56 90.08 35.56L90.08 35.56Q99.12 32.84 104.48 28.32L104.48 28.32L103.36 29.44Q98.28 33.76 89.76 36.44L89.76 36.44L89.52 37.16Q97.32 34.48 105.48 27.96L105.48 27.96L106.24 27.04L107.04 26.08Q107.24 25.84 107.70 25.22Q108.16 24.60 108.36 24.22Q108.56 23.84 108.88 23.28Q109.20 22.72 109.42 22.16Q109.64 21.60 109.80 20.96L109.80 20.96Q110.24 19.36 110.20 17.88ZM82.68 27.52L83.32 26.88L85.84 25.12L88.84 23.12Q90.20 22.24 91.48 21.64L91.48 21.64L93.88 20.52Q94.60 18.16 94.98 16.76Q95.36 15.36 95.66 13.26Q95.96 11.16 95.88 9.40L95.88 9.40Q93.44 9.76 91.20 10.50Q88.96 11.24 86.64 12.58Q84.32 13.92 82.80 14.96L82.80 14.96L78.56 17.88Q75.60 20.92 74.68 22.08L74.68 22.08Q72.68 24.64 71.56 27.12L71.56 27.12Q70.44 29.68 70.32 31.86Q70.20 34.04 71.56 35.60Q72.92 37.16 75.68 37.56L75.68 37.56Q75.68 37.32 75.72 37L75.72 37Q76 34.84 77.28 33.08L77.28 33.08Q78.12 31.92 79.72 30.40L79.72 30.40Q78.96 31.20 78.40 31.96L78.40 31.96Q77.12 33.72 76.84 35.88L76.84 35.88Q76.68 37 77.12 37.72L77.12 37.72Q78.36 37.76 79.80 37.64L79.80 37.64Q82.80 37.36 86 36.64L86 36.64L86.32 36.32L86.36 36.56Q87.84 36.24 89.28 35.80L89.28 35.80Q90.48 32.36 93.16 23L93.16 23L93.68 21.28Q92.12 21.92 90.36 22.76L90.36 22.76Q89.04 23.40 87.68 24.26Q86.32 25.12 84.72 26.28Q83.12 27.44 82.20 28L82.20 28L82.68 27.52L81.44 28.72Q80.28 29.80 79.72 30.40L79.72 30.40Q82.08 28.16 82.20 28L82.20 28L82.68 27.52ZM88.72 37.44L88.96 36.68Q87.76 37.08 86.48 37.40L86.48 37.40L85.60 38.28Q87.16 37.92 88.72 37.44L88.72 37.44ZM114.04 35.56L114.04 35.56L115.16 34.44Q114.52 38.16 114.96 38.56L114.96 38.56Q115.16 38.72 115.96 38.72L115.96 38.72Q116.92 37.36 118.32 34.80L118.32 34.80L119.44 33.68Q117.60 37.08 116.20 38.72L116.20 38.72L115.08 39.84Q114.84 39.80 114.64 39.84Q114.44 39.88 114.20 39.84Q113.96 39.80 113.84 39.68L113.84 39.68Q113.36 39.28 114.04 35.56ZM118.48 32.12L117.36 33.24Q117.16 33.20 116.98 33.16Q116.80 33.12 116.70 33.10Q116.60 33.08 116.56 33.06Q116.52 33.04 116.44 33.04L116.44 33.04L116.36 33.04Q116.32 33.04 116.16 33.08Q116.00 33.12 115.88 33.16L115.88 33.16L117.00 32.04Q118.84 30.84 121.00 29.88L121.00 29.88Q121.56 25.16 121.60 22.32L121.60 22.32Q121.16 18.44 121.16 15.80L121.16 15.80L122.28 14.68Q122.80 17.68 122.72 21.16L122.72 21.16L122.84 22.12L122.68 22.28Q122.60 24.84 122.04 29.40L122.04 29.40Q123.56 28.76 125.76 28L125.76 28L124.64 29.12Q123.08 29.68 121.96 30.12L121.96 30.12Q121.48 34.08 121.32 36.12L121.32 36.12Q121.32 36.40 121.24 37.18Q121.16 37.96 121.14 38.36Q121.12 38.76 121.10 39.46Q121.08 40.16 121.20 40.60Q121.32 41.04 121.50 41.58Q121.68 42.12 122.04 42.52Q122.40 42.92 122.88 43.24L122.88 43.24L121.76 44.36Q121.24 44.04 120.90 43.64Q120.56 43.24 120.36 42.70Q120.16 42.16 120.06 41.72Q119.96 41.28 119.96 40.58Q119.96 39.88 119.98 39.48Q120.00 39.08 120.08 38.30Q120.16 37.52 120.20 37.24L120.20 37.24Q120.36 35.24 120.92 30.52L120.92 30.52Q119.28 31.24 117.88 31.96L117.88 31.96Q118.16 32.04 118.48 32.12L118.48 32.12ZM130.68 37.40L130.68 37.40Q132.48 35.60 132.64 35.72L132.64 35.72Q132.72 35.92 132.68 36.46Q132.64 37 132.56 37.68L132.56 37.68L132.48 38.36Q132.52 38.92 132.62 39.20Q132.72 39.48 132.94 39.60Q133.16 39.72 133.38 39.74Q133.60 39.76 134.12 39.76Q134.64 39.76 135.08 39.84L135.08 39.84L133.96 40.96Q133.52 40.92 133.00 40.90Q132.48 40.88 132.26 40.88Q132.04 40.88 131.80 40.76Q131.56 40.64 131.48 40.34Q131.40 40.04 131.36 39.48L131.36 39.48L131.44 38.80Q131.52 38.12 131.56 37.58Q131.60 37.04 131.52 36.84L131.52 36.84Q131.40 36.76 130.68 37.40ZM126.04 35.92L126.84 34.04L127.96 32.92Q127.88 33.12 127.70 33.50Q127.52 33.88 127.40 34.20Q127.28 34.52 127.16 34.80L127.16 34.80Q127.00 35.28 126.60 36.68L126.60 36.68Q125.96 38.96 126.04 39.56L126.04 39.56Q126.32 41.68 129.68 38.40L129.68 38.40Q126.64 41.52 125.64 41.56L125.64 41.56Q125.04 41.60 124.92 40.68L124.92 40.68Q124.84 40.08 125.48 37.80L125.48 37.80Q125.84 36.40 126.04 35.92L126.04 35.92ZM135.16 38.68L135.16 38.68Q137.60 38.24 142.00 37.12L142.00 37.12Q142.08 37.08 142.18 36.96Q142.28 36.84 142.36 36.76Q142.44 36.68 142.50 36.60Q142.56 36.52 142.56 36.48Q142.56 36.44 142.48 36.40L142.48 36.40Q139.60 35.76 135.16 38.68ZM143.96 37.48L141.84 38.04Q141.36 38.88 141.04 39.72L141.04 39.72L139.92 40.84Q140.36 39.64 141.32 38.16L141.32 38.16Q136.12 39.48 133.44 39.92L133.44 39.92L134.56 38.80Q140.20 34.52 143.60 35.28L143.60 35.28Q143.72 35.36 143.66 35.46Q143.60 35.56 143.36 35.80L143.36 35.80L143.04 36.12L142.44 37.04L145.08 36.36L143.96 37.48ZM146.64 33.36L146.64 33.36L147.76 32.24Q146.96 33.84 145.88 36.58Q144.80 39.32 145.20 39.88L145.20 39.88Q145.28 40 145.40 40.04Q145.52 40.08 145.74 40.14Q145.96 40.20 146.04 40.20L146.04 40.20Q147.72 38.32 149.40 36.16L149.40 36.16L149.44 36.12Q150.04 35.20 150.56 34.48L150.56 34.48L152.00 32.68L153.12 31.56L150.56 35.04Q150.04 35.84 149.72 36.44Q149.40 37.04 149.24 37.44Q149.08 37.84 149.12 38.04Q149.16 38.24 149.24 38.34Q149.32 38.44 149.64 38.36Q149.96 38.28 150.18 38.18Q150.40 38.08 150.88 37.84L150.88 37.84L151.64 37.40L152.44 36.92L153.04 36.56Q153.28 36.40 153.60 36.22Q153.92 36.04 154.16 35.92Q154.40 35.80 154.56 35.76L154.56 35.76Q154.60 35.72 154.74 35.68Q154.88 35.64 154.98 35.60Q155.08 35.56 155.20 35.54Q155.32 35.52 155.38 35.56Q155.44 35.60 155.48 35.68L155.48 35.68Q155.60 35.92 155.34 36.46Q155.08 37 155.20 37.24L155.20 37.24Q155.60 38.04 156.44 38.24Q157.28 38.44 158.00 38.26Q158.72 38.08 159.72 37.72Q160.72 37.36 160.88 37.32L160.88 37.32L159.76 38.44Q159.60 38.48 158.60 38.84Q157.60 39.20 156.88 39.38Q156.16 39.56 155.30 39.36Q154.44 39.16 154.08 38.36L154.08 38.36Q153.96 38.12 154.20 37.58Q154.44 37.04 154.36 36.80L154.36 36.80Q154.32 36.72 154.24 36.70Q154.16 36.68 154.08 36.72L154.08 36.72L153.84 36.72Q153.76 36.76 153.62 36.82Q153.48 36.88 153.44 36.88L153.44 36.88Q153.12 37 150.44 38.56L150.44 38.56Q148.00 40 147.96 39.16L147.96 39.16Q147.96 38.60 148.76 37.24L148.76 37.24Q147.44 38.80 146.08 40.24L146.08 40.24L144.96 41.36Q144.84 41.32 144.64 41.28Q144.44 41.24 144.30 41.18Q144.16 41.12 144.08 41L144.08 41Q143.68 40.44 144.74 37.72Q145.80 35 146.64 33.36Z" fill="black"></path></svg>